<svg xmlns="http://www.w3.org/2000/svg" style="background-color:#1e1e1e" viewBox="0 0 1920 1080">
  <path fill="#4fc1ff" d="M554.85742 48.792969v58.619141h6.93164V83.564453c0-4.294608.86473-7.583692 2.59766-9.869141 1.75803-2.310552 4.25826-3.466796 7.49805-3.466796 2.83797 0 4.92286.892629 6.2539 2.675781 1.3311 1.783128 1.9961 4.570945 1.9961 8.363281v26.144532h6.96875V81.267578c0-5.72616-1.06643-9.995746-3.20118-12.808594-2.10962-2.83796-5.3128-4.257812-9.60742-4.257812-2.88818 0-5.38644.629013-7.49609 1.884766-2.1096 1.2306-3.77913 3.049913-5.00977 5.460937V48.792969h-6.93164zm-76.24804 15.408203c-5.07318 0-8.97931 1.104365-11.7168 3.314453-2.73752 2.184968-4.10547 5.300278-4.10547 9.34375 0 3.189552.91664 5.713778 2.75 7.572266 1.83339 1.833384 4.74505 3.139432 8.73828 3.917968l2.59961.527344.30273.074219c6.1531 1.230624 9.22852 3.453289 9.22852 6.667969 0 2.235192-.84077 3.980579-2.52344 5.236329-1.68269 1.2306-4.05712 1.8457-7.12109 1.8457-2.10965 0-4.34431-.32555-6.70508-.97851-2.36077-.6781-4.83505-1.68259-7.42187-3.013676v7.158206c2.66216.879 5.13643 1.53202 7.42187 1.95898 2.28544.45206 4.47018.67774 6.55469.67774 5.27408 0 9.39387-1.16826 12.35742-3.50391 2.96352-2.36079 4.44531-5.625908 4.44531-9.794922 0-3.139344-.89263-5.687532-2.67578-7.646484-1.75803-1.958928-4.35618-3.264977-7.79687-3.917969l-2.78907-.527344c-4.596-.879-7.47167-1.783634-8.62695-2.71289-1.15528-.929232-1.73242-2.335158-1.73242-4.21875 0-2.08452.76683-3.630174 2.29883-4.634766 1.55712-1.029696 3.90559-1.544922 7.04492-1.544922 2.08451 0 4.1295.289556 6.13867.867188 2.00917.577632 4.00618 1.444345 5.99023 2.599609V66.6875c-2.00917-.828792-4.05611-1.443871-6.14062-1.845703-2.08451-.426936-4.2553-.640625-6.51562-.640625zm50.63085 0c-6.52984 0-11.64214 1.959041-15.33398 5.876953-3.66675 3.91788-5.5 9.341781-5.5 16.273437 0 6.931633 1.83325 12.357489 5.5 16.275388 3.69184 3.91788 8.80414 5.87696 15.33398 5.87696 2.05939 0 4.06839-.2756 6.02735-.82813 1.98405-.5274 3.90519-1.33218 5.76367-2.41211v-7.195311c-1.63245 1.557098-3.40378 2.713341-5.3125 3.466801-1.90869.72832-4.0675 1.09179-6.47852 1.09179-4.31973 0-7.66071-1.4059-10.02148-4.218747-2.33568-2.837976-3.50391-6.857928-3.50391-12.056641 0-5.223863 1.16823-9.241839 3.50391-12.054687 2.33565-2.812824 5.67663-4.21875 10.02148-4.21875 2.33566 0 4.41857.363493 6.25196 1.091797 1.85848.728328 3.7057 1.908559 5.53906 3.541016v-7.269532c-1.95896-1.105032-3.90603-1.921797-5.83984-2.449218-1.93382-.527403-3.91688-.791016-5.95118-.791016zm89.24415 0c-6.02753 0-10.8503 2.008994-14.4668 6.027344-3.61651 4.018344-5.42383 9.394248-5.42383 16.125 0 6.906528 1.84527 12.330432 5.53711 16.273434 3.69187 3.91789 8.81616 5.87696 15.37109 5.87696 2.28542 0 4.6459-.2756 7.08203-.82813 2.46126-.5274 5.00945-1.33218 7.64649-2.41211v-6.894529c-2.73752 1.431552-5.31164 2.499929-7.72266 3.203129-2.41098.70322-4.72156 1.05468-6.93164 1.05468-4.36997 0-7.75893-1.2561-10.16992-3.767575-2.38592-2.511456-3.58008-6.064156-3.58008-10.660156v-.226563h30.02539v-3.390625c0-6.303792-1.55766-11.276353-4.67187-14.917969-3.08912-3.641645-7.32078-5.46289-12.69531-5.46289zm39.66796 0c-1.58224 0-3.00012.401411-4.25586 1.205078-1.23061.778557-2.26104 1.922792-3.08984 3.429688V65.21875h-6.29102v42.19336h6.29102V83.263672c0-5.751264.35146-9.393789 1.05469-10.925781.72832-1.557096 2.01039-2.335938 3.84375-2.335938 1.8585 0 3.13859.704904 3.8418 2.111328.72832 1.4064 1.09179 5.122863 1.09179 11.150391v24.148438h6.33008V83.263672c0-5.751264.36348-9.393789 1.0918-10.925781.75346-1.557096 2.13538-2.335938 4.14453-2.335938 1.758 0 2.9642.728915 3.61719 2.185547.67813 1.431552 1.01562 5.124004 1.01562 11.076172v24.148438h6.33008V82.962891c0-7.258128-.70295-12.194721-2.10938-14.806641-1.38133-2.637056-3.76772-3.955078-7.1582-3.955078-1.85845 0-3.45406.439333-4.78516 1.318359-1.30594.853896-2.38634 2.18588-3.24023 3.994141-.70323-1.783157-1.69376-3.115138-2.97461-3.994141-1.25573-.879024-2.83935-1.318359-4.74805-1.318359zm51.00782 0c-2.21008 0-4.49465.25161-6.85547.753906-2.33566.477192-4.784 1.206083-7.34571 2.185547v6.931641c2.28547-1.30596 4.63394-2.298467 7.04493-2.976563 2.41101-.678096 4.79545-1.017578 7.15625-1.017578 3.69184 0 6.37983.766836 8.0625 2.298828 1.68381 1.506864 2.5385 3.941265 2.5625 7.306641v1.09375h-9.30469c-6.10288 0-10.73792 1.218177-13.90235 3.654297-3.1393 2.43612-4.70898 6.002778-4.70898 10.699218 0 4.068577 1.28212 7.319741 3.84375 9.755861 2.56171 2.41101 5.98856 3.61719 10.2832 3.61719 3.21467 0 5.94059-.5911 8.17579-1.77149 2.26034-1.2055 4.13152-3.06274 5.61328-5.57422v6.25391h6.96875V83.337891c0-3.691848-.20157-6.453726-.60352-8.28711-.40187-1.858488-1.07883-3.416147-2.0332-4.671875-1.53195-2.0594-3.54095-3.603092-6.02735-4.632812-2.4612-1.029696-5.43878-1.544922-8.92968-1.544922zm-90.97657 5.876953c3.41563 0 6.0277 1.068397 7.83594 3.203125 1.83331 2.109648 2.79986 5.197049 2.90039 9.265625l-22.83008.039063c.40184-3.91788 1.68389-6.983272 3.84375-9.19336 2.15984-2.210088 4.90976-3.314453 8.25-3.314453zm92.82422 16.123047h8.77735v1.544922c-.02512 4.671336-1.13145 8.337848-3.31641 11-2.18501 2.637026-5.18647 3.955076-9.00391 3.955076-2.71234 0-4.8332-.70297-6.36523-2.10937-1.53197-1.40643-2.29883-3.377482-2.29883-5.914066 0-2.812848 1.01844-4.921701 3.05274-6.328125 2.05938-1.431528 5.11083-2.148437 9.15429-2.148437z"/>
  <path fill="#569cd6" d="M1166.4687 324.02355v2.3066h27.5939v-2.3066zm-55.1733 0v2.3066h27.5938v-2.3066zm-55.1733 0v2.3066h27.5938v-2.3066zm-55.1733 0v2.3066h27.5937v-2.3066zm-55.17332 0v2.3066h27.57953v-2.3066zm-55.17335 0v2.3066h27.57953v-2.3066zm-55.17335 0v2.3066h27.57953v-2.3066zm-55.17335 0v2.3066h27.57953v-2.3066zm-55.18756 0v2.3066h27.59374v-2.3066zm-30.6062-9.75703a.79034782.79034782 0 00-.0634.004.79034782.79034782 0 00-.19908.0428l-27.62247 10.16681a.79034782.79034782 0 000 1.48084l27.62247 10.16497a.79034782.79034782 0 00.9116-1.20923c-1.85944-2.59076-2.89404-5.57127-3.1068-8.58553h5.48431v-2.30683h-5.48619c.2088-3.01004 1.24132-5.96234 3.10868-8.49995a.79034782.79034782 0 00-.64926-1.25759zm196.14045 47.56486v2.2924h27.57956v-2.2924zm55.17336 0v2.2924h27.59372v-2.2924zm55.17332 0v2.2924h27.5937v-2.2924zm55.1733 0v2.2924h27.5938v-2.2924zm55.1733 0v2.2924h27.5938v-2.2924zm55.1733 0v2.2924h27.5939v-2.2924zm0 36.00044v2.3066h27.5939v-2.3066zm-55.1733 0v2.3066h27.5938v-2.3066zm-55.1733 0v2.3066h27.5938v-2.3066zm-55.1733 0v2.3066h27.5937v-2.3066zm-55.17332 0v2.3066h27.59372v-2.3066zm-55.17336 0v2.3066h27.57956v-2.3066zm275.86658 36.0034v2.29232h27.5939v-2.29232zm-55.1733 0v2.29232h27.5938v-2.29232zm-55.1733 0v2.29232h27.5938v-2.29232zm-55.1733 0v2.29232h27.5937v-2.29232zm-55.17332 0v2.29232h27.59376v-2.29232zm-55.17336 0v2.29232h27.57956v-2.29232zm-55.17332 0v2.29232h27.57952v-2.29232zm-55.17336 0v2.29232h27.57952v-2.29232zm-55.18756 0v2.29232h27.59376v-2.29232zm-30.6062-9.7698a.79034784.79034784 0 00-.0632.002.79034784.79034784 0 00-.1992.0428l-27.62248 10.16684a.79034784.79034784 0 000 1.4808l27.62248 10.16684a.79034784.79034784 0 00.9116-1.21112c-1.85944-2.59072-2.89404-5.57128-3.1068-8.58548h5.48432v-2.29196h-5.4862c.2064-3.01508 1.23824-5.97304 3.10868-8.5148a.79034784.79034784 0 00-.64928-1.25576zm-52.95864 516.9746h9.4934v-14.4H548.6036v14.4h9.4934m83.40604-498.82h9.4934v-14.4H548.6036v14.4h9.4934m83.40604 390.82068h9.4934v-14.4H548.6036v14.4h9.4934m797.5352-498.82001h9.4934v-14.4h-102.3928v14.4h9.4934m83.406 35.99936h9.4934v-14.4h-102.3928v14.4h9.4934m83.406 36h9.4934v-14.4h-102.3928v14.4h9.4934m83.406 36h9.4934v-14.4h-102.3928v14.4h9.4934M641.50304 334.22069h9.4934v-14.4H548.6036v14.4h9.4934m30.75836 365.93016a.7903478.7903478 0 00.004.0632.7903478.7903478 0 00.0428.1992l10.16496 27.62248a.7903478.7903478 0 001.48084 0l10.15192-27.62248a.7903478.7903478 0 00-1.1962-.9116c-2.59072 1.85944-5.57124 2.89404-8.58552 3.1068v-5.48432h-2.3068v5.4862c-3.01004-.2088-5.96236-1.24132-8.49996-3.10868a.7903478.7903478 0 00-1.25572.64928zm9.7562-30.6062h2.3066v-27.59376h-2.3066zm0-55.18756h2.3066v-27.57952h-2.3066zm0-55.17336h2.3066v-27.5795h-2.3066zm338.9171-463.262555h9.49336v11.489975h-9.49336zm46.44956 0h9.4934v11.489975h-9.4934zm46.44958 0h9.4934v11.489975h-9.4934zm232.2478 0h9.4934v11.489975h-9.4934zm46.4497 0h9.4933v11.489975h-9.4933zm46.4496 0h9.4934v11.489975h-9.4934zm232.2478 0h9.4934v11.489975h-9.4934zm46.4496 0h9.4934v11.489975h-9.4934zm46.4495 0h9.4933v11.489975h-9.4933z"/>
  <path fill="#4ec9b0" d="M835.4288 361.83138v2.2924h27.57952v-2.2924zm-55.17336 0v2.2924h27.57952v-2.2924zm-55.18756 0v2.2924h27.59376v-2.2924zm-30.6062-9.75568a.7903478.7903478 0 00-.0632.004v-.002a.7903478.7903478 0 00-.1992.0428l-27.62248 10.15192a.7903478.7903478 0 000 1.49572l27.62248 10.15192a.7903478.7903478 0 00.9116-1.1962c-1.86252-2.595-2.89644-5.58108-3.1068-8.6004h5.48432v-2.29196h-5.4862c.2088-3.01004 1.24132-5.96232 3.10868-8.49992a.7903478.7903478 0 00-.64928-1.25576zm-52.95864 18.14432h9.4934v-14.39996H548.6036v14.39996h9.4934m83.40604 498.82h9.4934v-14.4H548.6036v14.4h9.4934"/>
  <path fill="#f48771" d="M641.50304 406.22002h9.4934v-14.4H548.6036v14.4h9.4934m277.3318-8.3882v2.3066h27.57952v-2.3066zm-55.17336 0v2.3066h27.57952v-2.3066zm-55.18756 0v2.3066h27.59376v-2.3066zm-30.6062-9.7562a.7903478.7903478 0 00-.0632.004.7903478.7903478 0 00-.1992.0428l-27.62248 10.16496a.7903478.7903478 0 000 1.48084l27.62248 10.15192a.7903478.7903478 0 00.9116-1.1962c-1.85944-2.59072-2.89404-5.57124-3.1068-8.58552h5.48432v-2.3068h-5.4862c.2088-3.01004 1.24132-5.96236 3.10868-8.49996a.7903478.7903478 0 00-.64928-1.25572z"/>
  <path fill="#d4d4d4" d="M652.95432 628.93436q2.832.60547 4.4141 2.51953 1.6015 1.91406 1.6015 4.72656 0 4.31641-2.9687 6.67969-2.9688 2.36328-8.4375 2.36328-1.836 0-3.7891-.37109-1.9336-.35156-4.0039-1.07422v-3.80859q1.6406.95703 3.5937 1.44531 1.9532.48828 4.0821.48828 3.7109 0 5.6445-1.46484 1.9531-1.46485 1.9531-4.25782 0-2.57812-1.8164-4.02343-1.7968-1.46485-5.0195-1.46485h-3.3984v-3.24218h3.5546q2.9102 0 4.4532-1.15235 1.5429-1.17187 1.5429-3.35937 0-2.2461-1.6015-3.4375-1.5821-1.21094-4.5508-1.21094-1.6211 0-3.4766.35156-1.8554.35156-4.082 1.09375v-3.51562q2.2461-.625 4.1992-.9375 1.9727-.3125 3.711-.3125 4.4921 0 7.1093 2.05078 2.6172 2.03125 2.6172 5.50781 0 2.42188-1.3867 4.10156-1.3867 1.66016-3.9453 2.30469zm-3.3223-23.85736a25 25 0 00-24.832 25 25 25 0 0025 25 25 25 0 0025-25 25 25 0 00-25-25 25 25 0 00-.168 0zm.168 2.5a22.5 22.5 0 0122.5 22.5 22.5 22.5 0 01-22.5 22.5 22.5 22.5 0 01-22.5-22.5 22.5 22.5 0 0122.5-22.5zm520.63948 281.25881h13.7695v3.32032h-18.5156v-3.32032q2.2461-2.32421 6.1133-6.23046 3.8867-3.92579 4.8828-5.0586 1.8945-2.1289 2.6367-3.59375.7617-1.48437.7617-2.91015 0-2.32422-1.6406-3.78907-1.6211-1.46484-4.2383-1.46484-1.8554 0-3.9257.64453-2.0508.64453-4.3946 1.95313v-3.98438q2.3828-.95703 4.4531-1.44531 2.0704-.48828 3.7891-.48828 4.5313 0 7.2266 2.26562 2.6953 2.26563 2.6953 6.05469 0 1.79687-.6836 3.41797-.6641 1.60156-2.4414 3.78906-.4883.56641-3.1055 3.28125-2.6172 2.69531-7.3828 7.55859zm5.2324-36.2597a25 25 0 00-24.832 25 25 25 0 0025 25 25 25 0 0025-25 25 25 0 00-25-25 25 25 0 00-.168 0zm.168 2.5a22.5 22.5 0 0122.5 22.5 22.5 22.5 0 01-22.5 22.5 22.5 22.5 0 01-22.5-22.5 22.5 22.5 0 0122.5-22.5zm66.5624 106.79871v-7.83203h-6.4453v-3.24219h10.3516v12.51953q-2.2852 1.62109-5.0391 2.46094-2.7539.82031-5.8789.82031-6.8359 0-10.7031-3.98438-3.8477-4.0039-3.8477-11.13281 0-7.14844 3.8477-11.13281 3.8672-4.00391 10.7031-4.00391 2.8516 0 5.4102.70313 2.5781.70312 4.7461 2.07031v4.19922q-2.1875-1.85547-4.6485-2.79297-2.4609-.9375-5.1757-.9375-5.3516 0-8.0469 2.98828-2.6758 2.98828-2.6758 8.90625 0 5.89844 2.6758 8.88672 2.6953 2.98828 8.0469 2.98828 2.0898 0 3.7304-.35156 1.6407-.37109 2.9492-1.13281zm29.6875-7.67578v1.75781h-16.5234q.2344 3.71094 2.2266 5.66406 2.0117 1.93359 5.5859 1.93359 2.0703 0 4.0039-.50781 1.9531-.50781 3.8672-1.52344v3.39844q-1.9336.82031-3.9648 1.25-2.0313.42969-4.1211.42969-5.2344 0-8.3008-3.04688-3.0469-3.04687-3.0469-8.24218 0-5.3711 2.8906-8.51563 2.9102-3.16406 7.8321-3.16406 4.414 0 6.9726 2.85156 2.5781 2.83203 2.5781 7.71485zm-3.5937-1.05469q-.039-2.94922-1.6602-4.70703-1.6015-1.75782-4.2578-1.75782-3.0078 0-4.8242 1.69922-1.7969 1.69922-2.0703 4.78516zm13.0469-15.19531v6.21093h7.4023v2.79297h-7.4023v11.875q0 2.67578.7226 3.4375.7422.76172 2.9883.76172h3.6914v3.00781h-3.6914q-4.1601 0-5.7422-1.54297-1.582-1.5625-1.582-5.66406v-11.875h-2.6367v-2.79297h2.6367v-6.21093zm37.5586 9.57031q-.6055-.35156-1.3282-.50781-.7031-.17579-1.5625-.17579-3.0468 0-4.6875 1.99219-1.6211 1.97266-1.6211 5.6836v11.52343h-3.6132v-21.875h3.6132v3.39844q1.1329-1.99219 2.9493-2.94922 1.8164-.97656 4.414-.97656.3711 0 .8203.0586.4493.0391.9961.13672zm21.6601 6.67969v1.75781h-16.5234q.2344 3.71094 2.2265 5.66406 2.0118 1.93359 5.586 1.93359 2.0703 0 4.0039-.50781 1.9531-.50781 3.8672-1.52344v3.39844q-1.9336.82031-3.9649 1.25-2.0312.42969-4.1211.42969-5.2343 0-8.3007-3.04688-3.0469-3.04687-3.0469-8.24218 0-5.3711 2.8906-8.51563 2.9102-3.16406 7.832-3.16406 4.4141 0 6.9727 2.85156 2.5781 2.83203 2.5781 7.71485zm-3.5937-1.05469q-.039-2.94922-1.6602-4.70703-1.6015-1.75782-4.2578-1.75782-3.0078 0-4.8242 1.69922-1.7969 1.69922-2.0703 4.78516zm23.4375-8.33985v3.39844q-1.5235-.78125-3.1641-1.17187-1.6406-.39063-3.3984-.39063-2.6758 0-4.0235.82031-1.3281.82032-1.3281 2.46094 0 1.25.957 1.97266.9571.70312 3.8477 1.34765l1.2305.27344q3.8281.82031 5.4297 2.32422 1.621 1.48438 1.621 4.16016 0 3.04687-2.4218 4.82422-2.4024 1.77734-6.6211 1.77734-1.7578 0-3.6719-.35156-1.8945-.33203-4.0039-1.01563v-3.71094q1.9922 1.03516 3.9258 1.5625 1.9336.50782 3.8281.50782 2.5391 0 3.9063-.85938 1.3671-.8789 1.3671-2.46094 0-1.46484-.9961-2.24609-.9765-.78125-4.3164-1.50391l-1.25-.29296q-3.3398-.70313-4.8242-2.14844-1.4844-1.46485-1.4844-4.00391 0-3.08594 2.1875-4.76562 2.1875-1.67969 6.211-1.67969 1.9922 0 3.75.29297t3.2422.8789zm6.5429 12.59766v-13.24219h3.5938v13.10547q0 3.10547 1.2109 4.66797 1.211 1.54297 3.6328 1.54297 2.9102 0 4.5899-1.85547 1.6992-1.85547 1.6992-5.05859v-12.40235h3.5938v21.875h-3.5938v-3.35937q-1.3086 1.99219-3.0469 2.96875-1.7187.95703-4.0039.95703-3.7695 0-5.7226-2.34375-1.9532-2.34375-1.9532-6.85547zm9.043-13.76953zm16.7188-7.98828h3.5937v30.39062h-3.5937zm14.6484 2.30469v6.21093h7.4023v2.79297h-7.4023v11.875q0 2.67578.7227 3.4375.7421.76172 2.9882.76172h3.6914v3.00781h-3.6914q-4.1601 0-5.7422-1.54297-1.582-1.5625-1.582-5.66406v-11.875h-2.6367v-2.79297h2.6367v-6.21093zm33.3594 8.73046q-2.8907 0-4.5703 2.26563-1.6797 2.24609-1.6797 6.17187 0 3.92579 1.6601 6.19141 1.6797 2.24609 4.5899 2.24609 2.8711 0 4.5508-2.26562 1.6796-2.26563 1.6796-6.17188 0-3.88671-1.6796-6.15234-1.6797-2.28516-4.5508-2.28516zm0-3.04687q4.6875 0 7.3633 3.04687 2.6757 3.04688 2.6757 8.4375 0 5.3711-2.6757 8.4375-2.6758 3.04688-7.3633 3.04688-4.7071 0-7.3828-3.04688-2.6563-3.0664-2.6563-8.4375 0-5.39062 2.6563-8.4375 2.6757-3.04687 7.3828-3.04687zm31.6797 11.48437q0-3.96484-1.6407-6.21093-1.6211-2.26563-4.4726-2.26563-2.8516 0-4.4922 2.26563-1.6211 2.24609-1.6211 6.21093 0 3.96485 1.6211 6.23047 1.6406 2.2461 4.4922 2.2461 2.8515 0 4.4726-2.2461 1.6407-2.26562 1.6407-6.23047zm-12.2266-7.63671q1.1328-1.95313 2.8516-2.89063 1.7382-.95703 4.1406-.95703 3.9844 0 6.4648 3.16406 2.5 3.16406 2.5 8.32031 0 5.15625-2.5 8.32032-2.4804 3.16406-6.4648 3.16406-2.4024 0-4.1406-.9375-1.7188-.95703-2.8516-2.91016v3.28125h-3.6133v-30.39062h3.6133zm21.9141-3.32032h3.5937v22.26563q0 4.17969-1.6016 6.05469-1.582 1.875-5.1171 1.875h-1.3672v-3.04688h.957q2.0508 0 2.793-.95703.7422-.9375.7422-3.92578zm0-8.51562h3.5937v4.55078h-3.5937zm29.8046 18.55469v1.75781h-16.5234q.2344 3.71094 2.2266 5.66406 2.0117 1.93359 5.5859 1.93359 2.0703 0 4.0039-.50781 1.9531-.50781 3.8672-1.52344v3.39844q-1.9336.82031-3.9648 1.25-2.0313.42969-4.1211.42969-5.2344 0-8.3008-3.04688-3.0469-3.04687-3.0469-8.24218 0-5.3711 2.8906-8.51563 2.9102-3.16406 7.8321-3.16406 4.414 0 6.9726 2.85156 2.5781 2.83203 2.5781 7.71485zm-3.5937-1.05469q-.039-2.94922-1.6602-4.70703-1.6015-1.75782-4.2578-1.75782-3.0078 0-4.8242 1.69922-1.7969 1.69922-2.0703 4.78516zm25.2344-8.14453v3.35937q-1.5235-.83984-3.0664-1.25-1.5235-.42969-3.086-.42969-3.4961 0-5.4297 2.22657-1.9336 2.20703-1.9336 6.21093 0 4.00391 1.9336 6.23047 1.9336 2.20703 5.4297 2.20703 1.5625 0 3.086-.41015 1.5429-.42969 3.0664-1.26953v3.32031q-1.5039.70312-3.125 1.05469-1.6016.35156-3.418.35156-4.9414 0-7.8516-3.10547-2.9101-3.10547-2.9101-8.37891 0-5.35156 2.9297-8.41796 2.9492-3.06641 8.0664-3.06641 1.6601 0 3.2422.35156 1.582.33203 3.0664 1.01563zm9.8437-7.05078v6.21093h7.4024v2.79297h-7.4024v11.875q0 2.67578.7227 3.4375.7422.76172 2.9883.76172h3.6914v3.00781h-3.6914q-4.1602 0-5.7422-1.54297-1.5821-1.5625-1.5821-5.66406v-11.875h-2.6367v-2.79297h2.6367v-6.21093zm-375.8495-126.53712h6.4453v-22.24609l-7.0117 1.40625v-3.59375l6.9726-1.40625h3.9453v25.83984h6.4453v3.32032h-16.7968zm53.1151-29.38476h5.879l7.4414 19.84375 7.4804-19.84375h5.8789v29.16016h-3.8476v-25.60547l-7.5196 20h-3.9648l-7.5195-20v25.60547h-3.8282zm53.086 17.32422v1.75781h-16.5235q.2344 3.71094 2.2266 5.66406 2.0117 1.9336 5.5859 1.9336 2.0704 0 4.004-.50781 1.9531-.50782 3.8671-1.52344v3.39844q-1.9336.82031-3.9648 1.25-2.0313.42968-4.1211.42968-5.2344 0-8.3008-3.04687-3.0469-3.04688-3.0469-8.24219 0-5.37109 2.8907-8.51562 2.9101-3.16407 7.832-3.16407 4.4141 0 6.9727 2.85157 2.5781 2.83203 2.5781 7.71484zm-3.5938-1.05469q-.039-2.94922-1.6601-4.70703-1.6016-1.75781-4.2578-1.75781-3.0078 0-4.8243 1.69922-1.7968 1.69922-2.0703 4.78515zm22.168-5.625q-.6055-.35156-1.3281-.50781-.7031-.17578-1.5625-.17578-3.0469 0-4.6875 1.99219-1.6211 1.97265-1.6211 5.68359v11.52344h-3.6133v-21.875h3.6133v3.39843q1.1328-1.99218 2.9492-2.94921 1.8164-.97657 4.4141-.97657.3711 0 .8203.0586.4492.0391.9961.13672zm17.5 7.32422q0-3.90625-1.6211-6.05469-1.6016-2.14843-4.5117-2.14843-2.8906 0-4.5117 2.14843-1.6016 2.14844-1.6016 6.05469 0 3.88672 1.6016 6.03516 1.6211 2.14843 4.5117 2.14843 2.9101 0 4.5117-2.14843 1.6211-2.14844 1.6211-6.03516zm3.5938 8.47656q0 5.58594-2.4805 8.30078-2.4805 2.73438-7.5977 2.73438-1.8945 0-3.5742-.29297-1.6797-.27344-3.2617-.85937v-3.4961q1.582.85938 3.125 1.26953 1.543.41016 3.1445.41016 3.5352 0 5.293-1.85547Q1310 812.84747 1310 809.117v-1.77734q-1.1133 1.93359-2.8516 2.89063-1.7382.95703-4.1601.95703-4.0235 0-6.4844-3.06641-2.4609-3.06641-2.4609-8.125 0-5.07812 2.4609-8.14453 2.4609-3.06641 6.4844-3.06641 2.4219 0 4.1601.95703 1.7383.95704 2.8516 2.89063v-3.32031h3.5938zm26.1132-9.12109v1.75781h-16.5234q.2344 3.71094 2.2266 5.66406 2.0117 1.9336 5.5859 1.9336 2.0703 0 4.0039-.50781 1.9531-.50782 3.8672-1.52344v3.39844q-1.9336.82031-3.9649 1.25-2.0312.42968-4.121.42968-5.2344 0-8.3008-3.04687-3.0469-3.04688-3.0469-8.24219 0-5.37109 2.8906-8.51562 2.9102-3.16407 7.8321-3.16407 4.414 0 6.9726 2.85157 2.5781 2.83203 2.5781 7.71484zm-3.5937-1.05469q-.039-2.94922-1.6602-4.70703-1.6015-1.75781-4.2578-1.75781-3.0078 0-4.8242 1.69922-1.7969 1.69922-2.0703 4.78515zm36.1719-8.33984v3.39844q-1.5235-.78125-3.1641-1.17188-1.6406-.39062-3.3984-.39062-2.6758 0-4.0235.82031-1.3281.82031-1.3281 2.46094 0 1.25.957 1.97265.9571.70313 3.8477 1.34766l1.2305.27344q3.8281.82031 5.4296 2.32421 1.6211 1.48438 1.6211 4.16016 0 3.04688-2.4218 4.82422-2.4024 1.77734-6.6211 1.77734-1.7578 0-3.6719-.35156-1.8945-.33203-4.0039-1.01562v-3.71094q1.9922 1.03515 3.9258 1.5625 1.9336.50781 3.8281.50781 2.5391 0 3.9062-.85937 1.3672-.87891 1.3672-2.46094 0-1.46485-.9961-2.2461-.9765-.78125-4.3164-1.5039l-1.25-.29297q-3.3398-.70313-4.8242-2.14844-1.4844-1.46484-1.4844-4.0039 0-3.08594 2.1875-4.76563t6.211-1.67969q1.9922 0 3.75.29297t3.2422.87891zm15.3906 1.875q-2.8906 0-4.5703 2.26562-1.6797 2.2461-1.6797 6.17188 0 3.92578 1.6601 6.1914 1.6797 2.2461 4.5899 2.2461 2.8711 0 4.5508-2.26563 1.6797-2.26562 1.6797-6.17187 0-3.88672-1.6797-6.15235-1.6797-2.28515-4.5508-2.28515zm0-3.04688q4.6875 0 7.3633 3.04688 2.6757 3.04687 2.6757 8.4375 0 5.37109-2.6757 8.4375-2.6758 3.04687-7.3633 3.04687-4.707 0-7.3828-3.04687-2.6563-3.06641-2.6563-8.4375 0-5.39063 2.6563-8.4375 2.6758-3.04688 7.3828-3.04688zm15.6055 13.76953v-13.24218h3.5937v13.10547q0 3.10546 1.2109 4.66796 1.211 1.54297 3.6329 1.54297 2.9101 0 4.5898-1.85547 1.6992-1.85546 1.6992-5.05859v-12.40234h3.5938v21.875h-3.5938v-3.35938q-1.3086 1.99219-3.0469 2.96875-1.7187.95703-4.0039.95703-3.7695 0-5.7226-2.34375t-1.9531-6.85547zm9.0429-13.76953zm29.3946 3.88672q-.6055-.35156-1.3282-.50781-.7031-.17578-1.5625-.17578-3.0468 0-4.6875 1.99219-1.6211 1.97265-1.6211 5.68359v11.52344h-3.6132v-21.875h3.6132v3.39843q1.1328-1.99218 2.9493-2.94921 1.8164-.97657 4.414-.97657.3711 0 .8203.0586.4492.0391.9961.13672zm18.6914-2.51953v3.35938q-1.5235-.83985-3.0664-1.25-1.5235-.42969-3.086-.42969-3.4961 0-5.4297 2.22656-1.9336 2.20703-1.9336 6.21094 0 4.0039 1.9336 6.23047 1.9336 2.20703 5.4297 2.20703 1.5625 0 3.086-.41016 1.5429-.42969 3.0664-1.26953v3.32031q-1.5039.70313-3.125 1.05469-1.6016.35156-3.418.35156-4.9414 0-7.8516-3.10547-2.9101-3.10546-2.9101-8.3789 0-5.35156 2.9297-8.41797 2.9492-3.06641 8.0664-3.06641 1.6601 0 3.2422.35157 1.582.33203 3.0664 1.01562zm25 9.19922v1.75781h-16.5235q.2344 3.71094 2.2266 5.66406 2.0117 1.9336 5.5859 1.9336 2.0703 0 4.0039-.50781 1.9532-.50782 3.8672-1.52344v3.39844q-1.9336.82031-3.9648 1.25-2.0313.42968-4.1211.42968-5.2344 0-8.3008-3.04687-3.0469-3.04688-3.0469-8.24219 0-5.37109 2.8906-8.51562 2.9102-3.16407 7.8321-3.16407 4.414 0 6.9726 2.85157 2.5782 2.83203 2.5782 7.71484zm-3.5938-1.05469q-.039-2.94922-1.6601-4.70703-1.6016-1.75781-4.2579-1.75781-3.0078 0-4.8242 1.69922-1.7969 1.69922-2.0703 4.78515zm23.4375-8.33984v3.39844q-1.5234-.78125-3.1641-1.17188-1.6406-.39062-3.3984-.39062-2.6758 0-4.0234.82031-1.3282.82031-1.3282 2.46094 0 1.25.9571 1.97265.957.70313 3.8476 1.34766l1.2305.27344q3.8281.82031 5.4297 2.32421 1.6211 1.48438 1.6211 4.16016 0 3.04688-2.4219 4.82422-2.4023 1.77734-6.6211 1.77734-1.7578 0-3.6719-.35156-1.8945-.33203-4.0039-1.01562v-3.71094q1.9922 1.03515 3.9258 1.5625 1.9336.50781 3.8281.50781 2.5391 0 3.9063-.85937 1.3672-.87891 1.3672-2.46094 0-1.46485-.9961-2.2461-.9766-.78125-4.3164-1.5039l-1.25-.29297q-3.3399-.70313-4.8242-2.14844-1.4844-1.46484-1.4844-4.0039 0-3.08594 2.1875-4.76563t6.2109-1.67969q1.9922 0 3.75.29297t3.2422.87891zm19.6484-.64453h3.5938v21.875h-3.5938zm0-8.51563h3.5938v4.55078h-3.5938zm29.2774 17.1875v13.20313h-3.5938v-13.08594q0-3.10547-1.2109-4.64844t-3.6328-1.54297q-2.9102 0-4.5899 1.85547-1.6796 1.85547-1.6796 5.0586v12.36328h-3.6133v-21.875h3.6133v3.39843q1.289-1.97265 3.0273-2.94921 1.7578-.97657 4.043-.97657 3.7695 0 5.7031 2.34375 1.9336 2.32422 1.9336 6.85547zm10.7617-14.88281v6.21094h7.4024v2.79297h-7.4024v11.875q0 2.67578.7227 3.4375.7422.76171 2.9882.76171h3.6915v3.00782h-3.6915q-4.1601 0-5.7421-1.54297-1.5821-1.5625-1.5821-5.66406v-11.875h-2.6367v-2.79297h2.6367v-6.21094zm20.625 8.73047q-2.8906 0-4.5703 2.26562-1.6797 2.2461-1.6797 6.17188 0 3.92578 1.6602 6.1914 1.6797 2.2461 4.5898 2.2461 2.8711 0 4.5508-2.26563 1.6797-2.26562 1.6797-6.17187 0-3.88672-1.6797-6.15235-1.6797-2.28515-4.5508-2.28515zm0-3.04688q4.6875 0 7.3633 3.04688 2.6758 3.04687 2.6758 8.4375 0 5.37109-2.6758 8.4375-2.6758 3.04687-7.3633 3.04687-4.707 0-7.3828-3.04687-2.6563-3.06641-2.6563-8.4375 0-5.39063 2.6563-8.4375 2.6758-3.04688 7.3828-3.04688zm37.1875 3.04688q-2.8906 0-4.5703 2.26562-1.6797 2.2461-1.6797 6.17188 0 3.92578 1.6602 6.1914 1.6797 2.2461 4.5898 2.2461 2.8711 0 4.5508-2.26563 1.6797-2.26562 1.6797-6.17187 0-3.88672-1.6797-6.15235-1.6797-2.28515-4.5508-2.28515zm0-3.04688q4.6875 0 7.3633 3.04688 2.6758 3.04687 2.6758 8.4375 0 5.37109-2.6758 8.4375-2.6758 3.04687-7.3633 3.04687-4.707 0-7.3828-3.04687-2.6563-3.06641-2.6563-8.4375 0-5.39063 2.6563-8.4375 2.6758-3.04688 7.3828-3.04688zm34.1602 9.19922v13.20313h-3.5938v-13.08594q0-3.10547-1.2109-4.64844-1.211-1.54297-3.6328-1.54297-2.9102 0-4.5899 1.85547t-1.6797 5.0586v12.36328h-3.6132v-21.875h3.6132v3.39843q1.2891-1.97265 3.0274-2.94921 1.7578-.97657 4.0429-.97657 3.7696 0 5.7032 2.34375 1.9336 2.32422 1.9336 6.85547zm25.9179 1.36719v1.75781h-16.5234q.2344 3.71094 2.2266 5.66406 2.0117 1.9336 5.5859 1.9336 2.0703 0 4.0039-.50781 1.9531-.50782 3.8672-1.52344v3.39844q-1.9336.82031-3.9649 1.25-2.0312.42968-4.121.42968-5.2344 0-8.3008-3.04687-3.0469-3.04688-3.0469-8.24219 0-5.37109 2.8906-8.51562 2.9102-3.16407 7.8321-3.16407 4.414 0 6.9726 2.85157 2.5781 2.83203 2.5781 7.71484zm-3.5937-1.05469q-.039-2.94922-1.6602-4.70703-1.6015-1.75781-4.2578-1.75781-3.0078 0-4.8242 1.69922-1.7969 1.69922-2.0703 4.78515zm30.7031-6.46484q-2.8906 0-4.5703 2.26562-1.6797 2.2461-1.6797 6.17188 0 3.92578 1.6602 6.1914 1.6797 2.2461 4.5898 2.2461 2.8711 0 4.5508-2.26563 1.6797-2.26562 1.6797-6.17187 0-3.88672-1.6797-6.15235-1.6797-2.28515-4.5508-2.28515zm0-3.04688q4.6875 0 7.3633 3.04688 2.6758 3.04687 2.6758 8.4375 0 5.37109-2.6758 8.4375-2.6758 3.04687-7.3633 3.04687-4.707 0-7.3828-3.04687-2.6563-3.06641-2.6563-8.4375 0-5.39063 2.6563-8.4375 2.6758-3.04688 7.3828-3.04688zm31.6797 11.48438q0-3.96485-1.6406-6.21094-1.6211-2.26562-4.4727-2.26562-2.8515 0-4.4922 2.26562-1.6211 2.24609-1.6211 6.21094 0 3.96484 1.6211 6.23047 1.6407 2.24609 4.4922 2.24609 2.8516 0 4.4727-2.24609 1.6406-2.26563 1.6406-6.23047zm-12.2266-7.63672q1.1328-1.95313 2.8516-2.89063 1.7383-.95703 4.1406-.95703 3.9844 0 6.4649 3.16407 2.5 3.16406 2.5 8.32031 0 5.15625-2.5 8.32031-2.4805 3.16406-6.4649 3.16406-2.4023 0-4.1406-.9375-1.7188-.95703-2.8516-2.91015v3.28125h-3.6132v-30.39063h3.6132zm21.9141-3.32031h3.5937v22.26562q0 4.17969-1.6015 6.05469-1.582 1.875-5.1172 1.875h-1.3672v-3.04688h.957q2.0508 0 2.793-.95703.7422-.9375.7422-3.92578zm0-8.51563h3.5937v4.55078h-3.5937zm29.8047 18.55469v1.75781h-16.5235q.2344 3.71094 2.2266 5.66406 2.0117 1.9336 5.5859 1.9336 2.0704 0 4.004-.50781 1.9531-.50782 3.8671-1.52344v3.39844q-1.9336.82031-3.9648 1.25-2.0313.42968-4.1211.42968-5.2344 0-8.3008-3.04687-3.0469-3.04688-3.0469-8.24219 0-5.37109 2.8907-8.51562 2.9101-3.16407 7.832-3.16407 4.4141 0 6.9727 2.85157 2.5781 2.83203 2.5781 7.71484zm-3.5938-1.05469q-.039-2.94922-1.6601-4.70703-1.6016-1.75781-4.2578-1.75781-3.0078 0-4.8243 1.69922-1.7968 1.69922-2.0703 4.78515zm25.2344-8.14453v3.35938q-1.5234-.83985-3.0664-1.25-1.5234-.42969-3.0859-.42969-3.4961 0-5.4297 2.22656-1.9336 2.20703-1.9336 6.21094 0 4.0039 1.9336 6.23047 1.9336 2.20703 5.4297 2.20703 1.5625 0 3.0859-.41016 1.543-.42969 3.0664-1.26953v3.32031q-1.5039.70313-3.125 1.05469-1.6016.35156-3.418.35156-4.9414 0-7.8515-3.10547-2.9102-3.10546-2.9102-8.3789 0-5.35156 2.9297-8.41797 2.9492-3.06641 8.0664-3.06641 1.6602 0 3.2422.35157 1.582.33203 3.0664 1.01562zm9.8438-7.05078v6.21094H1820v2.79297h-7.4023v11.875q0 2.67578.7226 3.4375.7422.76171 2.9883.76171H1820v3.00782h-3.6914q-4.1602 0-5.7422-1.54297-1.582-1.5625-1.582-5.66406v-11.875h-2.6367v-2.79297h2.6367v-6.21094zm-578.3985 80.23639l-5.3515 14.51172h10.7226zm-2.2265-3.88672h4.4726l11.1133 29.16016h-4.1016l-2.6562-7.48047h-13.1445L1225 888.61121h-4.1602zm23.1445 25.87891v11.60156h-3.6133v-30.19531h3.6133v3.32031q1.1328-1.95313 2.8516-2.89063 1.7382-.95703 4.1406-.95703 3.9844 0 6.4648 3.16406 2.5 3.16407 2.5 8.32032t-2.5 8.32031q-2.4804 3.16406-6.4648 3.16406-2.4024 0-4.1406-.9375-1.7188-.95703-2.8516-2.91015zm12.2266-7.63672q0-3.96485-1.6407-6.21094-1.6211-2.26563-4.4726-2.26563-2.8516 0-4.4922 2.26563-1.6211 2.24609-1.6211 6.21094 0 3.96484 1.6211 6.23047 1.6406 2.24609 4.4922 2.24609 2.8515 0 4.4726-2.24609 1.6407-2.26563 1.6407-6.23047zm13.164 7.63672v11.60156h-3.6133v-30.19531h3.6133v3.32031q1.1328-1.95313 2.8516-2.89063 1.7383-.95703 4.1406-.95703 3.9844 0 6.4648 3.16406 2.5 3.16407 2.5 8.32032t-2.5 8.32031q-2.4804 3.16406-6.4648 3.16406-2.4023 0-4.1406-.9375-1.7188-.95703-2.8516-2.91015zm12.2266-7.63672q0-3.96485-1.6406-6.21094-1.6211-2.26563-4.4727-2.26563-2.8516 0-4.4922 2.26563-1.6211 2.24609-1.6211 6.21094 0 3.96484 1.6211 6.23047 1.6406 2.24609 4.4922 2.24609 2.8516 0 4.4727-2.24609 1.6406-2.26563 1.6406-6.23047zm9.6875-19.47266h3.5937v30.39063h-3.5937zm20.1953 32.42188q-1.5234 3.90625-2.9688 5.09765-1.4453 1.19141-3.8671 1.19141h-2.8711v-3.00781h2.1093q1.4844 0 2.3047-.70313.8203-.70312 1.8164-3.32031l.6446-1.64063-8.8477-21.52343h3.8086l6.8359 17.10937 6.836-17.10937h3.8086zm30.8594-30.11719v6.21094h7.4023v2.79296h-7.4023v11.875q0 2.67579.7226 3.4375.7422.76172 2.9883.76172h3.6914v3.00782h-3.6914q-4.1602 0-5.7422-1.54297-1.582-1.5625-1.582-5.66407v-11.875h-2.6367v-2.79296h2.6367v-6.21094zm24.8242 9.57031q-.6055-.35156-1.3281-.50781-.7032-.17578-1.5625-.17578-3.0469 0-4.6875 1.99218-1.6211 1.97266-1.6211 5.6836v11.52344h-3.6133v-21.875h3.6133v3.39843q1.1328-1.99218 2.9492-2.94922 1.8164-.97656 4.414-.97656.3711 0 .8204.0586.4492.0391.9961.13671zm13.75 7.51953q-4.3555 0-6.0352.9961-1.6797.99609-1.6797 3.39843 0 1.91407 1.25 3.04688 1.2696 1.11328 3.4375 1.11328 2.9883 0 4.7852-2.10938 1.8164-2.1289 1.8164-5.64453v-.80078zm7.168-1.48437v12.48047h-3.5938v-3.32032q-1.2305 1.99219-3.0664 2.94922-1.8359.9375-4.4922.9375-3.3594 0-5.3516-1.875-1.9726-1.89453-1.9726-5.05859 0-3.69141 2.4609-5.56641 2.4805-1.875 7.3828-1.875h5.0391v-.35156q0-2.48047-1.6406-3.82813-1.6211-1.36718-4.5703-1.36718-1.875 0-3.6524.44922-1.7773.44921-3.4179 1.34765v-3.32031q1.9726-.76172 3.8281-1.13281 1.8554-.39063 3.6133-.39063 4.7461 0 7.0898 2.46094 2.3438 2.46094 2.3438 7.46094zm25.6054-.72266v13.20313h-3.5937v-13.08594q0-3.10547-1.211-4.64844-1.2109-1.54297-3.6328-1.54297-2.9101 0-4.5898 1.85547-1.6797 1.85547-1.6797 5.05859v12.36329h-3.6133v-21.875h3.6133v3.39843q1.2891-1.97265 3.0273-2.94922 1.7578-.97656 4.043-.97656 3.7695 0 5.7031 2.34375 1.9336 2.32422 1.9336 6.85547zm21.1524-8.02734v3.39843q-1.5235-.78125-3.1641-1.17187-1.6406-.39063-3.3984-.39063-2.6758 0-4.0235.82032-1.3281.82031-1.3281 2.46093 0 1.25.957 1.97266.9571.70313 3.8477 1.34766l1.2305.27343q3.8281.82032 5.4296 2.32422 1.6211 1.48438 1.6211 4.16016 0 3.04687-2.4218 4.82422-2.4024 1.77734-6.6211 1.77734-1.7578 0-3.6719-.35156-1.8945-.33203-4.0039-1.01563v-3.71093q1.9922 1.03515 3.9258 1.5625 1.9336.50781 3.8281.50781 2.5391 0 3.9062-.85938 1.3672-.8789 1.3672-2.46093 0-1.46485-.9961-2.2461-.9765-.78125-4.3164-1.5039l-1.25-.29297q-3.3398-.70313-4.8242-2.14844-1.4844-1.46484-1.4844-4.00391 0-3.08593 2.1875-4.76562 2.1875-1.67969 6.211-1.67969 1.9922 0 3.75.29297t3.2422.87891zm17.9882-9.16016v2.98828h-3.4375q-1.9335 0-2.6953.78125-.7422.78125-.7422 2.8125v1.9336h5.918v2.79296h-5.918v19.08204h-3.6132v-19.08204h-3.4375v-2.79296h3.4375v-1.52344q0-3.65235 1.6992-5.3125 1.6992-1.67969 5.3906-1.67969zm11.4649 11.03516q-2.8906 0-4.5703 2.26562-1.6797 2.2461-1.6797 6.17188 0 3.92578 1.6601 6.1914 1.6797 2.2461 4.5899 2.2461 2.8711 0 4.5508-2.26563 1.6797-2.26562 1.6797-6.17187 0-3.88672-1.6797-6.15235-1.6797-2.28515-4.5508-2.28515zm0-3.04688q4.6875 0 7.3633 3.04688 2.6758 3.04687 2.6758 8.4375 0 5.37109-2.6758 8.4375-2.6758 3.04687-7.3633 3.04687-4.707 0-7.3828-3.04687-2.6563-3.06641-2.6563-8.4375 0-5.39063 2.6563-8.4375 2.6758-3.04688 7.3828-3.04688zm28.6523 3.88672q-.6054-.35156-1.3281-.50781-.7031-.17578-1.5625-.17578-3.0469 0-4.6875 1.99218-1.6211 1.97266-1.6211 5.6836v11.52344h-3.6133v-21.875h3.6133v3.39843q1.1328-1.99218 2.9492-2.94922 1.8164-.97656 4.4141-.97656.3711 0 .8203.0586.4492.0391.9961.13671zm20.1368.83984q1.3476-2.42187 3.2226-3.57421 1.875-1.15235 4.4141-1.15235 3.4179 0 5.2734 2.40235 1.8555 2.38281 1.8555 6.79687v13.20313h-3.6133v-13.08594q0-3.14453-1.1133-4.66797-1.1133-1.52344-3.3984-1.52344-2.793 0-4.4141 1.85547-1.6211 1.85547-1.6211 5.05859v12.36329h-3.6133v-13.08594q0-3.16406-1.1132-4.66797-1.1133-1.52344-3.4375-1.52344-2.7539 0-4.375 1.875-1.6211 1.85547-1.6211 5.03906v12.36329h-3.6133v-21.875h3.6133v3.39843q1.2304-2.01172 2.9492-2.96875 1.7187-.95703 4.082-.95703 2.3828 0 4.043 1.21094 1.6797 1.21094 2.4805 3.51562zm48.6328-3.55468v3.39843q-1.5235-.78125-3.1641-1.17187-1.6406-.39063-3.3984-.39063-2.6758 0-4.0235.82032-1.3281.82031-1.3281 2.46093 0 1.25.957 1.97266.9571.70313 3.8477 1.34766l1.2305.27343q3.8281.82032 5.4296 2.32422 1.6211 1.48438 1.6211 4.16016 0 3.04687-2.4218 4.82422-2.4024 1.77734-6.6211 1.77734-1.7578 0-3.6719-.35156-1.8945-.33203-4.0039-1.01563v-3.71093q1.9922 1.03515 3.9258 1.5625 1.9336.50781 3.8281.50781 2.5391 0 3.9062-.85938 1.3672-.8789 1.3672-2.46093 0-1.46485-.9961-2.2461-.9765-.78125-4.3164-1.5039l-1.25-.29297q-3.3398-.70313-4.8242-2.14844-1.4844-1.46484-1.4844-4.00391 0-3.08593 2.1875-4.76562 2.1875-1.67969 6.211-1.67969 1.9922 0 3.75.29297t3.2422.87891zm22.6562.19531v3.35937q-1.5234-.83984-3.0664-1.25-1.5234-.42968-3.0859-.42968-3.4961 0-5.4297 2.22656-1.9336 2.20703-1.9336 6.21094 0 4.0039 1.9336 6.23047 1.9336 2.20703 5.4297 2.20703 1.5625 0 3.0859-.41016 1.543-.42969 3.0664-1.26953v3.32031q-1.5039.70313-3.125 1.05469-1.6015.35156-3.418.35156-4.9414 0-7.8515-3.10547-2.9102-3.10547-2.9102-8.3789 0-5.35157 2.9297-8.41797 2.9492-3.06641 8.0664-3.06641 1.6602 0 3.2422.35156 1.582.33204 3.0664 1.01563zm24.4727 7.83203v13.20313h-3.5938v-13.08594q0-3.10547-1.2109-4.64844-1.211-1.54297-3.6328-1.54297-2.9102 0-4.5899 1.85547t-1.6797 5.05859v12.36329h-3.6132v-30.39063h3.6132v11.91406q1.2891-1.97265 3.0274-2.94922 1.7578-.97656 4.043-.97656 3.7695 0 5.7031 2.34375 1.9336 2.32422 1.9336 6.85547zm25.9179 1.36719v1.75781h-16.5234q.2344 3.71094 2.2266 5.66406 2.0117 1.9336 5.5859 1.9336 2.0703 0 4.0039-.50782 1.9531-.50781 3.8672-1.52343v3.39843q-1.9336.82032-3.9648 1.25-2.0313.42969-4.1211.42969-5.2344 0-8.3008-3.04687-3.0469-3.04688-3.0469-8.24219 0-5.37109 2.8906-8.51563 2.9102-3.16406 7.8321-3.16406 4.414 0 6.9726 2.85156 2.5781 2.83204 2.5781 7.71485zm-3.5937-1.05469q-.039-2.94922-1.6602-4.70703-1.6015-1.75781-4.2578-1.75781-3.0078 0-4.8242 1.69922-1.7969 1.69921-2.0703 4.78515zm26.5234-4.78516q1.3477-2.42187 3.2227-3.57421 1.875-1.15235 4.414-1.15235 3.418 0 5.2735 2.40235 1.8555 2.38281 1.8555 6.79687v13.20313h-3.6133v-13.08594q0-3.14453-1.1133-4.66797-1.1133-1.52344-3.3984-1.52344-2.793 0-4.4141 1.85547-1.6211 1.85547-1.6211 5.05859v12.36329h-3.6133v-13.08594q0-3.16406-1.1133-4.66797-1.1132-1.52344-3.4375-1.52344-2.7539 0-4.375 1.875-1.6211 1.85547-1.6211 5.03906v12.36329h-3.6132v-21.875h3.6132v3.39843q1.2305-2.01172 2.9493-2.96875 1.7187-.95703 4.082-.95703 2.3828 0 4.043 1.21094 1.6796 1.21094 2.4804 3.51562zm31.8946 6.67969q-4.3555 0-6.0352.9961-1.6797.99609-1.6797 3.39843 0 1.91407 1.25 3.04688 1.2695 1.11328 3.4375 1.11328 2.9883 0 4.7852-2.10938 1.8164-2.1289 1.8164-5.64453v-.80078zm7.1679-1.48437v12.48047h-3.5937v-3.32032q-1.2305 1.99219-3.0664 2.94922-1.836.9375-4.4922.9375-3.3594 0-5.3516-1.875-1.9726-1.89453-1.9726-5.05859 0-3.69141 2.4609-5.56641 2.4805-1.875 7.3828-1.875h5.0391v-.35156q0-2.48047-1.6406-3.82813-1.6211-1.36718-4.5704-1.36718-1.875 0-3.6523.44922-1.7773.44921-3.418 1.34765v-3.32031q1.9727-.76172 3.8282-1.13281 1.8554-.39063 3.6132-.39063 4.7461 0 7.0899 2.46094 2.3437 2.46094 2.3437 7.46094zm-532.2187-100.97852a25 25 0 00-24.832 25 25 25 0 0025 25 25 25 0 0025-25 25 25 0 00-25-25 25 25 0 00-.168 0zm.168 2.5a22.5 22.5 0 0122.5 22.5 22.5 22.5 0 01-22.5 22.5 22.5 22.5 0 01-22.5-22.5 22.5 22.5 0 0122.5-22.5zm3.1543 176.20514q2.832.60547 4.4141 2.51953 1.6015 1.91406 1.6015 4.72656 0 4.31641-2.9687 6.67969-2.9688 2.36328-8.4375 2.36328-1.836 0-3.7891-.37109-1.9336-.35156-4.0039-1.07422v-3.80859q1.6406.95703 3.5937 1.44531 1.9532.48828 4.0821.48828 3.7109 0 5.6445-1.46484 1.9531-1.46485 1.9531-4.25782 0-2.57812-1.8164-4.02343-1.7968-1.46485-5.0195-1.46485h-3.3984v-3.24218h3.5546q2.9102 0 4.4532-1.15235 1.5429-1.17187 1.5429-3.35937 0-2.2461-1.6015-3.4375-1.5821-1.21094-4.5508-1.21094-1.6211 0-3.4766.35156-1.8554.35156-4.082 1.09375v-3.51562q2.2461-.625 4.1992-.9375 1.9727-.3125 3.711-.3125 4.4921 0 7.1093 2.05078 2.6172 2.03125 2.6172 5.50781 0 2.42188-1.3867 4.10156-1.3867 1.66016-3.9453 2.30469zM1175.6719 930a25 25 0 00-24.832 25 25 25 0 0025 25 25 25 0 0025-25 25 25 0 00-25-25 25 25 0 00-.168 0zm.168 2.5a22.5 22.5 0 0122.5 22.5 22.5 22.5 0 01-22.5 22.5 22.5 22.5 0 01-22.5-22.5 22.5 22.5 0 0122.5-22.5zM924.66231 286.48067h13.7695v3.32032h-18.5156v-3.32032q2.2461-2.32421 6.1133-6.23046 3.8867-3.92579 4.8828-5.0586 1.8945-2.1289 2.6367-3.59375.7617-1.48437.7617-2.91015 0-2.32422-1.6406-3.78907-1.6211-1.46484-4.2383-1.46484-1.8554 0-3.9257.64453-2.0508.64453-4.3946 1.95313v-3.98438q2.3828-.95703 4.4531-1.44531 2.0704-.48828 3.7891-.48828 4.5313 0 7.2266 2.26562 2.6953 2.26563 2.6953 6.05469 0 1.79687-.6836 3.41797-.6641 1.60156-2.4414 3.78906-.4883.56641-3.1055 3.28125-2.6172 2.69531-7.3828 7.55859zm5.2324-36.2597a25 25 0 00-24.832 25 25 25 0 0025 25 25 25 0 0025-25 25 25 0 00-25-25 25 25 0 00-.168 0zm.168 2.5a22.5 22.5 0 0122.5 22.5 22.5 22.5 0 01-22.5 22.5 22.5 22.5 0 01-22.5-22.5 22.5 22.5 0 0122.5-22.5zm427.75129-26.11683h6.4453v-22.24609l-7.0117 1.40625v-3.59375l6.9726-1.40625h3.9453v25.83984h6.4453v3.32032h-16.7968zm7.9472-36.2597a25 25 0 00-24.832 25 25 25 0 0025 25 25 25 0 0025-25 25 25 0 00-25-25 25 25 0 00-.168 0zm.168 2.5a22.5 22.5 0 0122.5 22.5 22.5 22.5 0 01-22.5 22.5 22.5 22.5 0 01-22.5-22.5 22.5 22.5 0 0122.5-22.5zm-129.942 102.66055v5.42477h-2.4111q-9.3803 0-12.5824-2.78773-3.1645-2.78773-3.1645-11.11324v-9.0036q0-5.68846-2.0343-7.87345-1.9966-2.18498-7.2706-2.18498h-2.3357v-5.38708h2.3357q5.3117 0 7.3083-2.14732 1.9966-2.1473 1.9966-7.79811V243.593q0-8.32554 3.1645-11.07558 3.2021-2.78774 12.5824-2.78774h2.4111v5.38712h-2.6371q-5.274 0-6.894 1.65754-1.5822 1.6199-1.5822 6.96932v9.34268q0 5.91451-1.7329 8.5892-1.6952 2.67473-5.8391 3.61653 4.1815 1.01714 5.8768 3.69183 1.6952 2.67473 1.6952 8.55155v9.34265q0 5.38711 1.5822 7.007 1.62 1.6199 6.894 1.6199zm77.861.79013c-.042.00043-.084-.003-.1264-.0108-.2356-.0396-.4319-.20304-.5134-.42789l-8.5129-23.17997c-.2284-.6147.4787-1.15265 1.0101-.76835.8907.63932 1.8371 1.1588 2.8165 1.56643v-84.1541c0-7.0321-1.4567-11.88022-4.3699-14.54235-2.9133-2.71234-8.1615-4.06861-15.746-4.06861H862.3353c-11.10072 0-18.50864-2.10967-22.2256-6.32891-3.717-4.26952-5.57548-12.65788-5.57548-25.16497v-4.82202h10.84956v5.27411c0 7.03203 1.07896 11.62901 3.23888 13.7889 2.15988 2.10964 6.83128 3.16447 14.01404 3.16447h426.7478c7.8359 0 13.5378 1.12925 17.1042 3.38955 3.5662 2.2604 6.0275 6.17832 7.3837 11.75371 1.2557-5.52514 3.6667-9.41706 7.2331-11.67743 3.5662-2.31055 9.2925-3.46583 17.1784-3.46583h427.0122c7.1324 0 11.7778-1.05483 13.9377-3.16447 2.21-2.15989 3.3152-6.75687 3.3152-13.7889v-5.27411h10.7751v4.82202c0 12.50709-1.8585 20.89545-5.5755 25.16498-3.6668 4.21923-11.0506 6.3289-22.1512 6.3289h-426.4093c-7.5344 0-12.7342 1.33211-15.5972 3.9942-2.8632 2.66224-4.2938 7.53452-4.2938 14.61676v84.1113c.9307-.40136 1.8268-.90475 2.6678-1.52363.5336-.41929 1.2778.1386 1.0251.76835l-8.5278 23.17997c-.094.2592-.3384.43322-.614.43718zm449.6767-181.7263h2.5617q5.3118 0 6.9317-1.65755 1.6199-1.65759 1.6199-6.96931v-9.342689q0-5.87682 1.6952-8.551512 1.6952-2.674728 5.8769-3.691872-4.144-.941796-5.8769-3.616524-1.6952-2.674692-1.6952-8.589204v-9.34266q0-5.31176-1.6199-6.969312-1.6199-1.65758-6.9317-1.65758h-2.5617v-5.387112h2.3357q9.3803 0 12.5448 2.787728 3.1645 2.750076 3.1645 11.075584v9.0413q0 5.650776 1.9965 7.798104 2.0344 2.147292 7.3461 2.147292h2.411v5.387112h-2.411q-5.3117 0-7.3461 2.184948-1.9965 2.184984-1.9965 7.873452v9.003605q0 8.32554-3.1645 11.11323-3.1645 2.78773-12.5448 2.78773h-2.3357zm51.2339-65.699981h6.0275q5.6885 8.890596 8.4762 17.404488 2.7877 8.513868 2.7877 16.91472 0 8.4762-2.7877 16.990093-2.7877 8.51386-8.4762 17.40445h-6.0275q5.0103-8.7399 7.4591-17.29145 2.4863-8.551545 2.4863-17.103093 0-8.589204-2.4863-17.140764-2.4488-8.551544-7.4591-17.178444zm-412.2447 47.127684h9.4934v7.798107l-7.4214 14.4284h-5.8016l3.7296-14.4284zm112.112 18.572297v5.42476h-2.4111q-9.3803 0-12.5824-2.78773-3.1645-2.7877-3.1645-11.11324v-9.003595q0-5.688468-2.0342-7.873452-1.9967-2.184948-7.2707-2.184948h-2.3357v-5.387112h2.3357q5.3117 0 7.3083-2.147292 1.9966-2.147328 1.9966-7.798104v-9.041304q0-8.325504 3.1645-11.07558 3.2021-2.787732 12.5824-2.787732h2.4111v5.387112h-2.6371q-5.2741 0-6.8939 1.657584-1.5823 1.619892-1.5823 6.969312v9.34266q0 5.914512-1.7329 8.589204-1.6953 2.674728-5.8392 3.616524 4.1816 1.017144 5.8768 3.691872 1.6953 2.674692 1.6953 8.551512v9.342689q0 5.38707 1.5823 7.00696 1.6198 1.6199 6.8939 1.6199zm-401.3953 0h2.5617q5.3118 0 6.9317-1.65755 1.6199-1.65759 1.6199-6.96931v-9.342689q0-5.87682 1.6952-8.551512 1.6952-2.674728 5.8768-3.691872-4.1439-.941796-5.8768-3.616524-1.6952-2.674692-1.6952-8.589204v-9.34266q0-5.31176-1.6199-6.969312-1.6199-1.65758-6.9317-1.65758h-2.5617v-5.387112h2.3357q9.3803 0 12.5448 2.787728 3.1644 2.750076 3.1644 11.075584v9.0413q0 5.650776 1.9966 7.798104 2.0343 2.147292 7.3461 2.147292h2.411v5.387112h-2.411q-5.3118 0-7.3461 2.184948-1.9966 2.184984-1.9966 7.873452v9.003605q0 8.32554-3.1644 11.11323-3.1645 2.78773-12.5448 2.78773h-2.3357zm57.0355-18.572297h9.4934v7.798107l-7.4215 14.4284h-5.8015l3.7296-14.4284zm-418.0462 0h9.49332v7.798107l-7.42136 14.4284h-5.80148l3.72952-14.4284zm112.11188 18.572297v5.42476h-2.41104q-9.38032 0-12.5824-2.78773-3.16444-2.7877-3.16444-11.11324v-9.003595q0-5.688468-2.03432-7.873452-1.9966-2.184948-7.27072-2.184948h-2.33564v-5.387112h2.33564q5.3118 0 7.3084-2.147292 1.99664-2.147328 1.99664-7.798104v-9.041304q0-8.325504 3.16444-11.07558 3.20208-2.787732 12.5824-2.787732h2.41104v5.387112h-2.637q-5.27412 0-6.894 1.657584-1.58224 1.619892-1.58224 6.969312v9.34266q0 5.914512-1.73292 8.589204-1.69524 2.674728-5.83916 3.616524 4.18164 1.017144 5.87688 3.691872 1.6952 2.674692 1.6952 8.551512v9.342689q0 5.38707 1.58224 7.00696 1.61988 1.6199 6.894 1.6199zM441.50146 48.868839q-5.01036 8.58924-7.49672 17.140752-2.44868 8.513904-2.44868 17.178456 0 8.626896 2.44868 17.178443 2.48636 8.55155 7.49672 17.2161h-6.02752q-5.68848-8.96594-8.4762-17.44214-2.78772-8.513859-2.78772-16.952403 0-8.400852 2.78772-16.914716 2.78772-8.513892 8.4762-17.404492zm158.64436 85.524741v139.02736c.93068-.40136 1.8268-.90475 2.66776-1.52363.53356-.41929 1.27784.1386 1.02508.76835l-8.5278 23.17997c-.094.2592-.3384.43326-.614.43718v.002c-.0424.00044-.0848-.003-.1264-.0108-.236-.0396-.43192-.20304-.5134-.42789l-8.51296-23.17997c-.2288-.6147.47872-1.15265 1.01012-.76835.89076.63933 1.83708 1.15881 2.81656 1.56643V134.39407m-97.31126 891.38763h2.56168q5.31176 0 6.93164-1.6576 1.61992-1.6575 1.61992-6.9693v-9.3427q0-5.8768 1.6952-8.55148 1.6952-2.67472 5.87684-3.69188-4.14392-.9418-5.87684-3.61648-1.6952-2.67472-1.6952-8.58924v-9.34268q0-5.31176-1.61992-6.96928-1.61988-1.6576-6.93164-1.6576h-2.56168v-5.38708h2.33564q9.38032 0 12.5448 2.78776 3.16444 2.75 3.16444 11.07556v9.04124q0 5.6508 1.9966 7.79816 2.03432 2.14724 7.34596 2.14724h2.41112v5.38708h-2.41112q-5.31164 0-7.34596 2.18508-1.9966 2.1849-1.9966 7.8734v9.0036q0 8.3255-3.16444 11.1132-3.16448 2.7878-12.5448 2.7878h-2.33564zm29.79856-231.45676v5.42476h-2.41112q-9.38028 0-12.5824-2.78772-3.16452-2.78772-3.16452-11.11324v-9.00364q0-5.68844-2.03428-7.8734-1.9966-2.185-7.27068-2.185h-2.33564v-5.38708h2.33564q5.3118 0 7.30844-2.14732 1.9966-2.14728 1.9966-7.79808v-9.04132q0-8.32548 3.16452-11.07552 3.20204-2.78776 12.5824-2.78776h2.41104v5.38708h-2.63704q-5.27408 0-6.894 1.6576-1.58224 1.61988-1.58224 6.96932v9.34264q0 5.91452-1.73292 8.58924-1.6952 2.67468-5.83912 3.61648 4.18156 1.01716 5.87684 3.69188 1.6952 2.67468 1.6952 8.55156v9.34264q0 5.38708 1.58224 7.007 1.61992 1.61988 6.894 1.61988zm-29.79864-267.36316h2.56176q5.31168 0 6.9316-1.6576 1.61988-1.65756 1.61988-6.96932v-9.34264q0-5.8768 1.69524-8.55156 1.6952-2.67472 5.87684-3.69184-4.14392-.9418-5.87684-3.61652-1.69524-2.67472-1.69524-8.58924v-9.34264q0-5.31172-1.61988-6.96932-1.61992-1.65752-6.9316-1.65752h-2.56176v-5.38712h2.33568q9.38032 0 12.54476 2.78772 3.16448 2.75004 3.16448 11.07556v9.04128q0 5.6508 1.99664 7.79812 2.03428 2.14728 7.34596 2.14728h2.41104v5.38712h-2.41104q-5.31168 0-7.34596 2.18496-1.99664 2.185-1.99664 7.87348v9.0036q0 8.32548-3.16448 11.11324-3.16444 2.78772-12.54476 2.78772h-2.33568zM521.858 295.50499v5.42477h-2.41104q-9.38032 0-12.5824-2.78773-3.16452-2.78773-3.16452-11.11324v-9.0036q0-5.68846-2.03428-7.87345-1.99656-2.18498-7.27064-2.18498h-2.33568v-5.38708h2.33568q5.3118 0 7.30836-2.14732 1.99656-2.1473 1.99656-7.79811V243.593q0-8.32554 3.16452-11.07558 3.20208-2.78774 12.5824-2.78774h2.41104v5.38712h-2.637q-5.27412 0-6.894 1.65754-1.58224 1.6199-1.58224 6.96932v9.34268q0 5.91451-1.73292 8.5892-1.6952 2.67473-5.83916 3.61653 4.18156 1.01714 5.87688 3.69183 1.6952 2.67473 1.6952 8.55155v9.34265q0 5.38711 1.58224 7.007 1.61988 1.6199 6.894 1.6199zm684.3306 231.45679h2.5617q5.3118 0 6.9316-1.6576 1.62-1.65756 1.62-6.96932v-9.34264q0-5.8768 1.6952-8.55156 1.6952-2.67472 5.8768-3.69184-4.1439-.9418-5.8768-3.61652-1.6952-2.67472-1.6952-8.58924v-9.34264q0-5.31172-1.62-6.96932-1.6198-1.65752-6.9316-1.65752h-2.5617v-5.38712h2.3357q9.3803 0 12.5448 2.78772 3.1644 2.75004 3.1644 11.07556v9.04128q0 5.6508 1.9966 7.79812 2.0343 2.14728 7.346 2.14728h2.4111v5.38712h-2.4111q-5.3117 0-7.346 2.18496-1.9966 2.185-1.9966 7.87348v9.0036q0 8.32548-3.1644 11.11324-3.1645 2.78772-12.5448 2.78772h-2.3357z"/>
  <path fill="#dcdcaa" d="M126.7529439 73.92073537q-2.2226392-1.73290188-4.52061727-2.5240101-2.29798579-.79110821-5.0480279-.79110821-6.47955889 0-9.90769706 4.06855323-3.42813817 4.06856095-3.42813817 11.7536188v20.98321209H96.879175v-42.1924639h6.9692885v8.25013404q1.73290958-4.48294398 5.3117332-6.85626863 3.6164969-2.41099794 8.55150494-2.41099794 2.56168338 0 4.78432258.64041506 2.2226392.64042277 4.25691968 1.99660718zM152.85953046 57.8725313l-8.02410203 28.78128982h16.04820406zm-4.59596385-6.7055909h9.229601l17.21602973 56.24406078h-7.87340887l-4.14390753-14.65434636H142.9895067l-4.06855323 14.65434636h-7.87341659zM212.72008815 66.68774155v6.78092977q-2.97607414-1.73290187-5.98982156-2.59935667-3.01374742-.86644708-6.140507-.86644708-4.70898372 0-7.04463508 1.54454315-2.29798578 1.50686985-2.29798578 4.63363714 0 2.8253887 1.73290959 4.2192464 1.73290187 1.3938577 8.62685151 2.71236881l2.7877154.52741062q5.16104005.97946695 7.79807001 3.9178678 2.67470325 2.93840855 2.67470325 7.64738456 0 6.25352686-4.44527841 9.7946772-4.44527841 3.50348475-12.3563683 3.50348475-3.12675957 0-6.55489774-.67809607-3.42813817-.64041506-7.42135254-1.9589339V98.7088108q3.8801945 1.99660719 7.42135254 3.01374743 3.54115033.97946694 6.7055832.97946694 4.59597156 0 7.11998165-1.84592174 2.5240101-1.88359503 2.5240101-5.23638663 0-4.82199587-9.229601-6.66791761l-.30137089-.07537744-2.59935667-.52741063q-5.98982155-1.16782567-8.73987138-3.91786779-2.75004211-2.7877154-2.75004211-7.57203798 0-6.06516814 4.10623424-9.34262087 4.10622652-3.3151183 11.7159378-3.3151183 3.39046488 0 6.51723217.64041505 3.12675957.60274949 6.140507 1.84592175zM259.13179844 66.68774155v6.78092977q-2.97607413-1.73290187-5.98982155-2.59935667-3.01374742-.86644708-6.140507-.86644708-4.70898372 0-7.04463508 1.54454315-2.29798578 1.50686985-2.29798578 4.63363714 0 2.8253887 1.73290959 4.2192464 1.73290187 1.3938577 8.6268515 2.71236881l2.78771541.52741062q5.16104005.97946695 7.79807 3.9178678 2.67470326 2.93840855 2.67470326 7.64738456 0 6.25352686-4.44527842 9.7946772-4.4452784 3.50348475-12.35636828 3.50348475-3.12675958 0-6.55489775-.67809607-3.42813818-.64041506-7.42135255-1.9589339V98.7088108q3.8801945 1.99660719 7.42135255 3.01374743 3.54115032.97946694 6.70558319.97946694 4.59597157 0 7.11998166-1.84592174 2.52401009-1.88359503 2.52401009-5.23638663 0-4.82199587-9.229601-6.66791761l-.30137088-.07537744-2.59935667-.52741063q-5.98982156-1.16782567-8.73987138-3.91786779-2.75004211-2.7877154-2.75004211-7.57203798 0-6.06516814 4.10623423-9.34262087 4.10622653-3.3151183 11.7159378-3.3151183 3.39046489 0 6.51723218.64041505 3.12675957.60274949 6.140507 1.84592175zM278.53280181 65.21853727h17.74343264v36.80539184h13.750226v5.38707207h-34.4320672v-5.38707207h13.75022599V70.60561706h-10.81181743zm10.81181743-16.42492152h6.93161521v8.77754467h-6.93161521zM347.6229605 85.97572505q0-7.79807-2.56168339-11.82895766-2.5240178-4.06856095-7.38368697-4.06856095-5.08569347 0-7.76039671 4.06856095-2.67470325 4.03088766-2.67470325 11.82895766 0 7.79807001 2.67470325 11.90430425 2.71236882 4.06856095 7.8357433 4.06856095 4.78432258 0 7.30834038-4.10623424 2.56168338-4.10622652 2.56168338-11.86663096zm6.9316152 18.7229073q0 9.49330632-4.48294398 14.39064105-4.4829517 4.89734246-13.1851498 4.89734246-2.86305426 0-5.98982155-.5274029-3.12675957-.52741063-6.25352686-1.54455087v-6.85627635q3.69184348 1.7329096 6.7055909 2.5616911 3.01374743.8287815 5.53775752.8287815 5.61310409 0 8.17479518-3.0514207 2.56168338-3.05142072 2.56168338-9.68166505V100.705418q-1.657563 3.54115033-4.52062499 5.27405992-2.86305426 1.73290187-6.9692885 1.73290187-7.38367925 0-11.79128438-5.9144827-4.40760512-5.91447497-4.40760512-15.82217203 0-9.94536263 4.40760512-15.85984532 4.40760513-5.91447498 11.79128438-5.91447498 4.06856095 0 6.89394964 1.619882 2.82538869 1.61988973 4.59596385 5.01036233v-5.46241865h6.93161522zM401.3053379 81.26674905v26.14425213h-6.96929623V81.26674905q0-5.68845067-1.99660718-8.36315392-1.99660718-2.67469553-6.25352686-2.67469553-4.85966145 0-7.49669141 3.46580374-2.59935667 3.42813818-2.59935667 9.87002378v23.84627406h-6.93162293v-42.1924639h6.93162293v6.32887344q1.84591403-3.6164969 5.0103546-5.46241865 3.16443287-1.88358732 7.49669141-1.88358732 6.4418856 0 9.60632618 4.25691197 3.20210615 4.21924639 3.20210615 12.80843233z"/>
</svg>